# Blender 5.1.2
# www.blender.org
mtllib Musorka.mtl
o Cylinder
v 0.000000 1.262754 -0.846263
v 0.000000 0.833494 -0.842785
v 0.165098 1.262754 -0.830002
v 0.164419 0.833494 -0.826591
v 0.323851 1.262754 -0.781845
v 0.322520 0.833494 -0.778632
v 0.470158 1.262754 -0.703642
v 0.468226 0.833494 -0.700750
v 0.598398 1.262754 -0.598398
v 0.595939 0.833494 -0.595939
v 0.703642 1.262754 -0.470158
v 0.700750 0.833494 -0.468226
v 0.781845 1.262754 -0.323851
v 0.778632 0.833494 -0.322520
v 0.830002 1.262754 -0.165098
v 0.826591 0.833494 -0.164419
v 0.846263 1.262754 0.000000
v 0.842785 0.833494 -0.000000
v 0.830002 1.262754 0.165098
v 0.826591 0.833494 0.164419
v 0.781845 1.262754 0.323851
v 0.778632 0.833494 0.322520
v 0.703642 1.262754 0.470158
v 0.700750 0.833494 0.468226
v 0.598398 1.262754 0.598398
v 0.595939 0.833494 0.595939
v 0.470158 1.262754 0.703642
v 0.468226 0.833494 0.700750
v 0.323851 1.262754 0.781845
v 0.322520 0.833494 0.778632
v 0.165098 1.262754 0.830002
v 0.164419 0.833494 0.826591
v 0.000000 1.262754 0.846263
v 0.000000 0.833494 0.842785
v -0.165098 1.262754 0.830002
v -0.164419 0.833494 0.826591
v -0.323851 1.262754 0.781845
v -0.322520 0.833494 0.778632
v -0.470158 1.262754 0.703642
v -0.468226 0.833494 0.700750
v -0.598398 1.262754 0.598398
v -0.595939 0.833494 0.595939
v -0.703642 1.262754 0.470158
v -0.700750 0.833494 0.468226
v -0.781845 1.262754 0.323851
v -0.778632 0.833494 0.322520
v -0.830002 1.262754 0.165098
v -0.826591 0.833494 0.164419
v -0.846263 1.262754 0.000000
v -0.842785 0.833494 -0.000000
v -0.830002 1.262754 -0.165098
v -0.826591 0.833494 -0.164419
v -0.781845 1.262754 -0.323851
v -0.778632 0.833494 -0.322520
v -0.703642 1.262754 -0.470158
v -0.700750 0.833494 -0.468226
v -0.598398 1.262754 -0.598398
v -0.595939 0.833494 -0.595939
v -0.470158 1.262754 -0.703642
v -0.468226 0.833494 -0.700750
v -0.323851 1.262754 -0.781845
v -0.322520 0.833494 -0.778632
v -0.165098 1.262754 -0.830002
v -0.164419 0.833494 -0.826591
v 0.000000 3.338690 -1.000000
v 0.195090 3.338690 -0.980785
v 0.382683 3.338690 -0.923880
v 0.555570 3.338690 -0.831470
v 0.707107 3.338690 -0.707107
v 0.831470 3.338690 -0.555570
v 0.923880 3.338690 -0.382683
v 0.980785 3.338690 -0.195090
v 1.000000 3.338690 0.000000
v 0.980785 3.338690 0.195090
v 0.923880 3.338690 0.382683
v 0.831470 3.338690 0.555570
v 0.707107 3.338690 0.707107
v 0.555570 3.338690 0.831470
v 0.382683 3.338690 0.923880
v 0.195090 3.338690 0.980785
v 0.000000 3.338690 1.000000
v -0.195090 3.338690 0.980785
v -0.382683 3.338690 0.923880
v -0.555570 3.338690 0.831470
v -0.707107 3.338690 0.707107
v -0.831470 3.338690 0.555570
v -0.923880 3.338690 0.382683
v -0.980785 3.338690 0.195090
v -1.000000 3.338690 0.000000
v -0.980785 3.338690 -0.195090
v -0.923880 3.338690 -0.382683
v -0.831470 3.338690 -0.555570
v -0.707107 3.338690 -0.707107
v -0.555570 3.338690 -0.831470
v -0.382683 3.338690 -0.923880
v -0.195090 3.338690 -0.980785
v 0.000000 3.338690 -1.000000
v 0.195090 3.338690 -0.980785
v 0.382683 3.338690 -0.923880
v 0.555570 3.338690 -0.831470
v 0.707107 3.338690 -0.707107
v 0.831470 3.338690 -0.555570
v 0.923880 3.338690 -0.382683
v 0.980785 3.338690 -0.195090
v 1.000000 3.338690 0.000000
v 0.980785 3.338690 0.195090
v 0.923880 3.338690 0.382683
v 0.831470 3.338690 0.555570
v 0.707107 3.338690 0.707107
v 0.555570 3.338690 0.831470
v 0.382683 3.338690 0.923880
v 0.195090 3.338690 0.980785
v 0.000000 3.338690 1.000000
v -0.195090 3.338690 0.980785
v -0.382683 3.338690 0.923880
v -0.555570 3.338690 0.831470
v -0.707107 3.338690 0.707107
v -0.831470 3.338690 0.555570
v -0.923880 3.338690 0.382683
v -0.980785 3.338690 0.195090
v -1.000000 3.338690 0.000000
v -0.980785 3.338690 -0.195090
v -0.923880 3.338690 -0.382683
v -0.831470 3.338690 -0.555570
v -0.707107 3.338690 -0.707107
v -0.555570 3.338690 -0.831470
v -0.382683 3.338690 -0.923880
v -0.195090 3.338690 -0.980785
v 0.000000 3.338690 -0.873031
v 0.170320 3.338690 -0.856256
v 0.334095 3.338690 -0.806576
v 0.485030 3.338690 -0.725899
v 0.617326 3.338690 -0.617326
v 0.725899 3.338690 -0.485030
v 0.806576 3.338690 -0.334095
v 0.856256 3.338690 -0.170320
v 0.873031 3.338690 0.000000
v 0.856256 3.338690 0.170320
v 0.806576 3.338690 0.334095
v 0.725899 3.338690 0.485030
v 0.617326 3.338690 0.617326
v 0.485030 3.338690 0.725899
v 0.334095 3.338690 0.806576
v 0.170320 3.338690 0.856256
v 0.000000 3.338690 0.873031
v -0.170320 3.338690 0.856256
v -0.334095 3.338690 0.806576
v -0.485030 3.338690 0.725899
v -0.617326 3.338690 0.617326
v -0.725899 3.338690 0.485030
v -0.806576 3.338690 0.334095
v -0.856256 3.338690 0.170320
v -0.873031 3.338690 0.000000
v -0.856256 3.338690 -0.170320
v -0.806576 3.338690 -0.334095
v -0.725899 3.338690 -0.485030
v -0.617326 3.338690 -0.617326
v -0.485030 3.338690 -0.725899
v -0.334095 3.338690 -0.806576
v -0.170320 3.338690 -0.856256
vn 0.0978 -0.0623 -0.9932
vn 0.2897 -0.0623 -0.9551
vn 0.4705 -0.0623 -0.8802
vn 0.6332 -0.0623 -0.7715
vn 0.7715 -0.0623 -0.6332
vn 0.8802 -0.0623 -0.4705
vn 0.9551 -0.0623 -0.2897
vn 0.9932 -0.0623 -0.0978
vn 0.9932 -0.0623 0.0978
vn 0.9551 -0.0623 0.2897
vn 0.8802 -0.0623 0.4705
vn 0.7715 -0.0623 0.6332
vn 0.6332 -0.0623 0.7715
vn 0.4705 -0.0623 0.8802
vn 0.2897 -0.0623 0.9551
vn 0.0978 -0.0623 0.9932
vn -0.0978 -0.0623 0.9932
vn -0.2897 -0.0623 0.9551
vn -0.4705 -0.0623 0.8802
vn -0.6332 -0.0623 0.7715
vn -0.7715 -0.0623 0.6332
vn -0.8802 -0.0623 0.4705
vn -0.9551 -0.0623 0.2897
vn -0.9932 -0.0623 0.0978
vn -0.9932 -0.0623 -0.0978
vn -0.9551 -0.0623 -0.2897
vn -0.8802 -0.0623 -0.4705
vn -0.7715 -0.0623 -0.6332
vn -0.6332 -0.0623 -0.7715
vn -0.4705 -0.0623 -0.8802
vn -0.0000 -1.0000 -0.0000
vn -0.2897 -0.0623 -0.9551
vn -0.0978 -0.0623 -0.9932
vn -0.0000 1.0000 -0.0000
vn -0.0980 0.0128 0.9951
vn -0.2903 0.0128 0.9569
vn -0.4714 0.0128 0.8818
vn -0.6343 0.0128 0.7729
vn -0.7729 0.0128 0.6343
vn -0.8818 0.0128 0.4714
vn -0.9569 0.0128 0.2903
vn -0.9951 0.0128 0.0980
vn -0.9951 0.0128 -0.0980
vn -0.9569 0.0128 -0.2903
vn -0.8818 0.0128 -0.4714
vn -0.7729 0.0128 -0.6343
vn -0.6343 0.0128 -0.7729
vn -0.4714 0.0128 -0.8818
vn -0.2903 0.0128 -0.9569
vn -0.0980 0.0128 -0.9951
vn 0.0980 0.0128 -0.9951
vn 0.2903 0.0128 -0.9569
vn 0.4714 0.0128 -0.8818
vn 0.6343 0.0128 -0.7729
vn 0.7729 0.0128 -0.6343
vn 0.8818 0.0128 -0.4714
vn 0.9569 0.0128 -0.2903
vn 0.9951 0.0128 -0.0980
vn 0.9951 0.0128 0.0980
vn 0.9569 0.0128 0.2903
vn 0.8818 0.0128 0.4714
vn 0.7729 0.0128 0.6343
vn 0.6343 0.0128 0.7729
vn 0.4714 0.0128 0.8818
vn 0.2903 0.0128 0.9569
vn 0.0980 0.0128 0.9951
vt 1.000000 0.500000
vt 1.000000 1.000000
vt 0.968750 1.000000
vt 0.968750 0.500000
vt 0.937500 1.000000
vt 0.937500 0.500000
vt 0.906250 1.000000
vt 0.906250 0.500000
vt 0.875000 1.000000
vt 0.875000 0.500000
vt 0.843750 1.000000
vt 0.843750 0.500000
vt 0.812500 1.000000
vt 0.812500 0.500000
vt 0.781250 1.000000
vt 0.781250 0.500000
vt 0.750000 1.000000
vt 0.750000 0.500000
vt 0.718750 1.000000
vt 0.718750 0.500000
vt 0.687500 1.000000
vt 0.687500 0.500000
vt 0.656250 1.000000
vt 0.656250 0.500000
vt 0.625000 1.000000
vt 0.625000 0.500000
vt 0.593750 1.000000
vt 0.593750 0.500000
vt 0.562500 1.000000
vt 0.562500 0.500000
vt 0.531250 1.000000
vt 0.531250 0.500000
vt 0.500000 1.000000
vt 0.500000 0.500000
vt 0.468750 1.000000
vt 0.468750 0.500000
vt 0.437500 1.000000
vt 0.437500 0.500000
vt 0.406250 1.000000
vt 0.406250 0.500000
vt 0.375000 1.000000
vt 0.375000 0.500000
vt 0.343750 1.000000
vt 0.343750 0.500000
vt 0.312500 1.000000
vt 0.312500 0.500000
vt 0.281250 1.000000
vt 0.281250 0.500000
vt 0.250000 1.000000
vt 0.250000 0.500000
vt 0.218750 1.000000
vt 0.218750 0.500000
vt 0.187500 1.000000
vt 0.187500 0.500000
vt 0.156250 1.000000
vt 0.156250 0.500000
vt 0.125000 1.000000
vt 0.125000 0.500000
vt 0.093750 1.000000
vt 0.093750 0.500000
vt 0.062500 1.000000
vt 0.062500 0.500000
vt 0.296822 0.485388
vt 0.250000 0.490000
vt 0.203178 0.485388
vt 0.158156 0.471731
vt 0.116663 0.449553
vt 0.080294 0.419706
vt 0.050447 0.383337
vt 0.028269 0.341844
vt 0.014612 0.296822
vt 0.010000 0.250000
vt 0.014612 0.203178
vt 0.028269 0.158156
vt 0.050447 0.116663
vt 0.080294 0.080294
vt 0.116663 0.050447
vt 0.158156 0.028269
vt 0.203178 0.014612
vt 0.250000 0.010000
vt 0.296822 0.014612
vt 0.341844 0.028269
vt 0.383337 0.050447
vt 0.419706 0.080294
vt 0.449553 0.116663
vt 0.471731 0.158156
vt 0.485388 0.203178
vt 0.490000 0.250000
vt 0.485388 0.296822
vt 0.471731 0.341844
vt 0.449553 0.383337
vt 0.419706 0.419706
vt 0.383337 0.449553
vt 0.341844 0.471731
vt 0.031250 1.000000
vt 0.031250 0.500000
vt 0.000000 1.000000
vt 0.000000 0.500000
vt 0.750000 0.453103
vt 0.789623 0.449200
vt 0.827724 0.437643
vt 0.862838 0.418874
vt 0.893615 0.393616
vt 0.918874 0.362838
vt 0.937643 0.327724
vt 0.949200 0.289623
vt 0.953103 0.250000
vt 0.949200 0.210377
vt 0.937643 0.172276
vt 0.918874 0.137162
vt 0.893615 0.106384
vt 0.862838 0.081126
vt 0.827724 0.062357
vt 0.789623 0.050799
vt 0.750000 0.046897
vt 0.710377 0.050799
vt 0.672276 0.062357
vt 0.637162 0.081126
vt 0.606384 0.106384
vt 0.581126 0.137162
vt 0.562357 0.172276
vt 0.550799 0.210377
vt 0.546897 0.250000
vt 0.550800 0.289623
vt 0.562357 0.327724
vt 0.581126 0.362838
vt 0.606384 0.393616
vt 0.637162 0.418874
vt 0.672276 0.437643
vt 0.710377 0.449201
vt 0.796822 0.485388
vt 0.750000 0.490000
vt 0.841844 0.471731
vt 0.883337 0.449553
vt 0.919706 0.419706
vt 0.949553 0.383337
vt 0.971731 0.341844
vt 0.985388 0.296822
vt 0.990000 0.250000
vt 0.985388 0.203178
vt 0.971731 0.158156
vt 0.949553 0.116663
vt 0.919706 0.080294
vt 0.883337 0.050447
vt 0.841844 0.028269
vt 0.796822 0.014612
vt 0.750000 0.010000
vt 0.703178 0.014612
vt 0.658156 0.028269
vt 0.616663 0.050447
vt 0.580294 0.080294
vt 0.550447 0.116663
vt 0.528269 0.158156
vt 0.514612 0.203178
vt 0.510000 0.250000
vt 0.514612 0.296822
vt 0.528269 0.341844
vt 0.550447 0.383337
vt 0.580294 0.419706
vt 0.616663 0.449553
vt 0.658156 0.471731
vt 0.703178 0.485388
vt 0.790877 0.455501
vt 0.750000 0.459528
vt 0.830183 0.443578
vt 0.866407 0.424216
vt 0.898158 0.398158
vt 0.924216 0.366407
vt 0.943578 0.330183
vt 0.955501 0.290877
vt 0.959527 0.250000
vt 0.955501 0.209123
vt 0.943578 0.169817
vt 0.924216 0.133593
vt 0.898158 0.101842
vt 0.866407 0.075784
vt 0.830183 0.056422
vt 0.790877 0.044499
vt 0.750000 0.040472
vt 0.709123 0.044499
vt 0.669817 0.056422
vt 0.633593 0.075784
vt 0.601842 0.101842
vt 0.575784 0.133593
vt 0.556422 0.169817
vt 0.544498 0.209123
vt 0.540473 0.250000
vt 0.544499 0.290877
vt 0.556422 0.330183
vt 0.575784 0.366407
vt 0.601842 0.398158
vt 0.633593 0.424216
vt 0.669817 0.443578
vt 0.709123 0.455501
s 0
f 65/1/1 66/4/1 4/3/1 2/2/1
f 66/4/2 67/6/2 6/5/2 4/3/2
f 67/6/3 68/8/3 8/7/3 6/5/3
f 68/8/4 69/10/4 10/9/4 8/7/4
f 69/10/5 70/12/5 12/11/5 10/9/5
f 70/12/6 71/14/6 14/13/6 12/11/6
f 71/14/7 72/16/7 16/15/7 14/13/7
f 72/16/8 73/18/8 18/17/8 16/15/8
f 73/18/9 74/20/9 20/19/9 18/17/9
f 74/20/10 75/22/10 22/21/10 20/19/10
f 75/22/11 76/24/11 24/23/11 22/21/11
f 76/24/12 77/26/12 26/25/12 24/23/12
f 77/26/13 78/28/13 28/27/13 26/25/13
f 78/28/14 79/30/14 30/29/14 28/27/14
f 79/30/15 80/32/15 32/31/15 30/29/15
f 80/32/16 81/34/16 34/33/16 32/31/16
f 81/34/17 82/36/17 36/35/17 34/33/17
f 82/36/18 83/38/18 38/37/18 36/35/18
f 83/38/19 84/40/19 40/39/19 38/37/19
f 84/40/20 85/42/20 42/41/20 40/39/20
f 85/42/21 86/44/21 44/43/21 42/41/21
f 86/44/22 87/46/22 46/45/22 44/43/22
f 87/46/23 88/48/23 48/47/23 46/45/23
f 88/48/24 89/50/24 50/49/24 48/47/24
f 89/50/25 90/52/25 52/51/25 50/49/25
f 90/52/26 91/54/26 54/53/26 52/51/26
f 91/54/27 92/56/27 56/55/27 54/53/27
f 92/56/28 93/58/28 58/57/28 56/55/28
f 93/58/29 94/60/29 60/59/29 58/57/29
f 94/60/30 95/62/30 62/61/30 60/59/30
f 4/63/31 6/94/31 8/93/31 10/92/31 12/91/31 14/90/31 16/89/31 18/88/31 20/87/31 22/86/31 24/85/31 26/84/31 28/83/31 30/82/31 32/81/31 34/80/31 36/79/31 38/78/31 40/77/31 42/76/31 44/75/31 46/74/31 48/73/31 50/72/31 52/71/31 54/70/31 56/69/31 58/68/31 60/67/31 62/66/31 64/65/31 2/64/31
f 95/62/32 96/96/32 64/95/32 62/61/32
f 96/96/33 65/98/33 2/97/33 64/95/33
f 1/99/34 63/130/34 61/129/34 59/128/34 57/127/34 55/126/34 53/125/34 51/124/34 49/123/34 47/122/34 45/121/34 43/120/34 41/119/34 39/118/34 37/117/34 35/116/34 33/115/34 31/114/34 29/113/34 27/112/34 25/111/34 23/110/34 21/109/34 19/108/34 17/107/34 15/106/34 13/105/34 11/104/34 9/103/34 7/102/34 5/101/34 3/100/34
f 98/131/31 66/131/31 65/132/31 97/132/31
f 99/133/31 67/133/31 66/131/31 98/131/31
f 100/134/31 68/134/31 67/133/31 99/133/31
f 101/135/31 69/135/31 68/134/31 100/134/31
f 102/136/31 70/136/31 69/135/31 101/135/31
f 103/137/31 71/137/31 70/136/31 102/136/31
f 104/138/31 72/138/31 71/137/31 103/137/31
f 105/139/31 73/139/31 72/138/31 104/138/31
f 106/140/31 74/140/31 73/139/31 105/139/31
f 107/141/31 75/141/31 74/140/31 106/140/31
f 108/142/31 76/142/31 75/141/31 107/141/31
f 109/143/31 77/143/31 76/142/31 108/142/31
f 110/144/31 78/144/31 77/143/31 109/143/31
f 111/145/31 79/145/31 78/144/31 110/144/31
f 112/146/31 80/146/31 79/145/31 111/145/31
f 113/147/31 81/147/31 80/146/31 112/146/31
f 114/148/31 82/148/31 81/147/31 113/147/31
f 115/149/31 83/149/31 82/148/31 114/148/31
f 116/150/31 84/150/31 83/149/31 115/149/31
f 117/151/31 85/151/31 84/150/31 116/150/31
f 118/152/31 86/152/31 85/151/31 117/151/31
f 119/153/31 87/153/31 86/152/31 118/152/31
f 120/154/31 88/154/31 87/153/31 119/153/31
f 121/155/31 89/155/31 88/154/31 120/154/31
f 122/156/31 90/156/31 89/155/31 121/155/31
f 123/157/31 91/157/31 90/156/31 122/156/31
f 124/158/31 92/158/31 91/157/31 123/157/31
f 125/159/31 93/159/31 92/158/31 124/158/31
f 126/160/31 94/160/31 93/159/31 125/159/31
f 127/161/31 95/161/31 94/160/31 126/160/31
f 128/162/31 96/162/31 95/161/31 127/161/31
f 97/132/31 65/132/31 96/162/31 128/162/31
f 130/163/34 98/131/34 97/132/34 129/164/34
f 131/165/34 99/133/34 98/131/34 130/163/34
f 132/166/34 100/134/34 99/133/34 131/165/34
f 133/167/34 101/135/34 100/134/34 132/166/34
f 134/168/34 102/136/34 101/135/34 133/167/34
f 135/169/34 103/137/34 102/136/34 134/168/34
f 136/170/34 104/138/34 103/137/34 135/169/34
f 137/171/34 105/139/34 104/138/34 136/170/34
f 138/172/34 106/140/34 105/139/34 137/171/34
f 139/173/34 107/141/34 106/140/34 138/172/34
f 140/174/34 108/142/34 107/141/34 139/173/34
f 141/175/34 109/143/34 108/142/34 140/174/34
f 142/176/34 110/144/34 109/143/34 141/175/34
f 143/177/34 111/145/34 110/144/34 142/176/34
f 144/178/34 112/146/34 111/145/34 143/177/34
f 145/179/34 113/147/34 112/146/34 144/178/34
f 146/180/34 114/148/34 113/147/34 145/179/34
f 147/181/34 115/149/34 114/148/34 146/180/34
f 148/182/34 116/150/34 115/149/34 147/181/34
f 149/183/34 117/151/34 116/150/34 148/182/34
f 150/184/34 118/152/34 117/151/34 149/183/34
f 151/185/34 119/153/34 118/152/34 150/184/34
f 152/186/34 120/154/34 119/153/34 151/185/34
f 153/187/34 121/155/34 120/154/34 152/186/34
f 154/188/34 122/156/34 121/155/34 153/187/34
f 155/189/34 123/157/34 122/156/34 154/188/34
f 156/190/34 124/158/34 123/157/34 155/189/34
f 157/191/34 125/159/34 124/158/34 156/190/34
f 158/192/34 126/160/34 125/159/34 157/191/34
f 159/193/34 127/161/34 126/160/34 158/192/34
f 160/194/34 128/162/34 127/161/34 159/193/34
f 129/164/34 97/132/34 128/162/34 160/194/34
f 3/100/35 130/163/35 129/164/35 1/99/35
f 5/101/36 131/165/36 130/163/36 3/100/36
f 7/102/37 132/166/37 131/165/37 5/101/37
f 9/103/38 133/167/38 132/166/38 7/102/38
f 11/104/39 134/168/39 133/167/39 9/103/39
f 13/105/40 135/169/40 134/168/40 11/104/40
f 15/106/41 136/170/41 135/169/41 13/105/41
f 17/107/42 137/171/42 136/170/42 15/106/42
f 19/108/43 138/172/43 137/171/43 17/107/43
f 21/109/44 139/173/44 138/172/44 19/108/44
f 23/110/45 140/174/45 139/173/45 21/109/45
f 25/111/46 141/175/46 140/174/46 23/110/46
f 27/112/47 142/176/47 141/175/47 25/111/47
f 29/113/48 143/177/48 142/176/48 27/112/48
f 31/114/49 144/178/49 143/177/49 29/113/49
f 33/115/50 145/179/50 144/178/50 31/114/50
f 35/116/51 146/180/51 145/179/51 33/115/51
f 37/117/52 147/181/52 146/180/52 35/116/52
f 39/118/53 148/182/53 147/181/53 37/117/53
f 41/119/54 149/183/54 148/182/54 39/118/54
f 43/120/55 150/184/55 149/183/55 41/119/55
f 45/121/56 151/185/56 150/184/56 43/120/56
f 47/122/57 152/186/57 151/185/57 45/121/57
f 49/123/58 153/187/58 152/186/58 47/122/58
f 51/124/59 154/188/59 153/187/59 49/123/59
f 53/125/60 155/189/60 154/188/60 51/124/60
f 55/126/61 156/190/61 155/189/61 53/125/61
f 57/127/62 157/191/62 156/190/62 55/126/62
f 59/128/63 158/192/63 157/191/63 57/127/63
f 61/129/64 159/193/64 158/192/64 59/128/64
f 63/130/65 160/194/65 159/193/65 61/129/65
f 1/99/66 129/164/66 160/194/66 63/130/66
