# Blender 5.1.2
# www.blender.org
mtllib Shtany2.mtl
o Cube.001
v -0.669025 -0.171471 -0.136008
v -0.690481 0.460897 -0.704444
v -0.781202 -0.272236 0.572673
v -0.623815 0.470587 0.541709
v 0.515699 -0.187987 -0.118108
v 0.667508 0.401678 -0.602345
v 0.586919 -0.237551 0.482725
v 0.644543 0.344460 0.453896
v 0.016070 0.425014 -0.542957
v -0.014518 -0.270507 0.515482
v 0.044940 0.288997 1.007504
v -0.048901 -0.196892 -0.201189
v -1.212852 0.074644 -0.837216
v 1.395755 -0.000000 1.000000
v -1.431341 0.138927 1.000000
v 1.123809 -0.059314 -0.846963
v -0.037376 -0.010619 -0.789408
v 0.000000 0.000000 1.000000
v 0.722189 0.399104 -0.026785
v -0.768890 -0.201223 0.154879
v 0.573179 -0.207922 0.165964
v -0.672740 0.478345 -0.039783
v 0.044017 0.501515 0.000000
v -0.045990 -0.245861 0.149067
v -1.431341 0.138927 0.000000
v 1.308177 -0.024698 0.071325
v -0.266069 0.341021 0.632082
v -0.377651 -0.202956 -0.194707
v -0.342902 0.443190 -0.663156
v -0.389481 -0.256923 0.535347
v -0.191362 -0.022175 1.000000
v -0.535751 0.036623 -0.732760
v -0.398773 -0.232258 0.155997
v -0.308677 0.472161 -0.021712
v 0.335516 0.398534 -0.568961
v 0.318354 -0.267813 0.488720
v 0.309630 0.318286 0.621943
v 0.261621 -0.185268 -0.172411
v 0.414440 -0.042927 -0.898391
v 0.224111 -0.007309 1.000000
v 0.354782 0.439847 0.008378
v 0.278262 -0.237293 0.152674
v 0.861691 -0.228197 0.802131
v -0.854490 -0.086629 -0.354835
v -1.250189 -0.143087 1.000000
v 0.711985 -0.184955 -0.340585
v -0.038570 -0.214368 -0.604833
v 0.002443 -0.203973 0.923661
v -1.154536 -0.105143 0.109503
v 0.907638 -0.150881 0.155279
v -0.392537 -0.186418 0.941560
v -0.422486 -0.165483 -0.525224
v 0.304323 -0.186330 -0.541178
v 0.381303 -0.244459 0.844611
v -1.020844 0.346161 -0.724338
v -0.879194 0.308757 0.935257
v 1.070370 0.266688 -0.838705
v -0.013814 0.203798 -0.813227
v 0.017368 0.177319 1.000000
v 0.894832 0.275651 0.754061
v 1.002312 0.230620 -0.009757
v -1.095688 0.462074 0.000000
v -0.476644 0.256469 -0.745926
v -0.177060 0.129946 1.000233
v 0.197310 0.142129 1.000000
v 0.407360 0.189951 -0.892783
v 0.044940 0.288997 1.007504
v 1.072148 0.285855 1.647328
v 1.573071 -0.027769 1.842545
v -1.097293 -0.168751 1.752266
v -1.283296 0.109115 1.775539
v 0.401427 -0.034971 1.841296
v -0.200234 -0.049618 1.915809
v -0.374287 -0.193094 1.768891
v 0.559787 -0.240584 1.621399
v 1.070608 -0.214631 1.394969
v -0.958182 0.427508 1.875608
v -0.189389 0.100212 1.943515
v 0.374626 0.112269 1.866833
v 1.123746 0.360781 2.858777
v 1.624669 -0.000088 2.937791
v -1.153117 -0.124759 2.691274
v -1.374250 0.120960 2.746681
v 0.453025 -0.006456 2.934204
v -0.204215 -0.019409 3.164795
v -0.316307 -0.113771 2.938972
v 0.611385 -0.126632 2.846610
v 1.122205 -0.026405 2.809710
v -1.128758 0.402520 3.025151
v -0.220442 0.113088 3.239063
v 0.426224 0.123750 3.007539
v 1.170340 -0.610117 3.569254
v 1.671263 -0.925990 3.377697
v -1.258064 -0.967886 3.052546
v -1.531142 -0.885311 3.228494
v 0.499618 -0.928130 3.370709
v -0.331434 -0.932482 3.577748
v -0.435563 -0.888440 3.333449
v 0.657979 -0.824882 3.087916
v 1.168799 -0.611163 3.008745
v -1.345171 -0.790691 3.645086
v -0.375670 -0.887956 3.717014
v 0.472818 -0.884373 3.513597
v 1.192726 -1.054113 3.645899
v 1.693649 -1.369985 3.454341
v -1.267838 -1.411882 3.131793
v -1.540915 -1.329307 3.307740
v 0.522004 -1.372126 3.447353
v -0.341207 -1.376478 3.656994
v -0.445336 -1.332436 3.412696
v 0.680365 -1.268878 3.164561
v 1.191185 -1.055159 3.085389
v -1.354945 -1.234687 3.724332
v -0.385444 -1.331952 3.796260
v 0.495203 -1.328369 3.590241
vn 0.1060 -0.9893 -0.0999
vn 0.0631 -0.9979 0.0168
vn 0.1054 -0.9943 -0.0162
vn 0.1697 0.9806 0.0977
vn -0.2965 -0.9494 -0.1035
vn -0.1914 -0.9720 -0.1362
vn 0.0566 -0.9980 0.0278
vn 0.1872 0.9611 0.2032
vn -0.0317 -0.9856 0.1664
vn -0.0396 -0.9972 -0.0638
vn 0.0007 -0.0008 1.0000
vn -0.2126 -0.0319 -0.9766
vn 0.0832 0.1572 -0.9841
vn -0.4750 0.8715 0.1222
vn 0.8524 0.5198 -0.0563
vn 0.3275 0.9444 -0.0288
vn 0.5573 0.8298 -0.0276
vn -0.7109 0.6709 -0.2110
vn -0.0132 -0.9937 -0.1113
vn 0.1347 0.9848 -0.1092
vn -0.2212 -0.9588 -0.1784
vn 0.0366 0.9986 -0.0369
vn 0.1595 -0.9817 -0.1036
vn 0.0634 -0.9902 -0.1247
vn 0.0021 0.9960 -0.0888
vn -0.1030 -0.9885 -0.1104
vn -0.1337 -0.0588 -0.9893
vn 0.4354 -0.8914 -0.1260
vn -0.0261 -0.9925 -0.1192
vn -0.0041 -0.9730 0.2307
vn -0.0629 -0.9977 -0.0242
vn -0.0888 0.9749 0.2040
vn 0.0390 -0.9881 -0.1489
vn 0.0501 0.9981 -0.0367
vn -0.0000 -0.0000 1.0000
vn 0.0752 0.0329 -0.9966
vn 0.0685 0.9837 0.1661
vn -0.0006 -1.0000 -0.0036
vn -0.0348 -0.9921 0.1204
vn 0.0143 -0.9967 -0.0797
vn 0.0824 -0.4400 0.8942
vn 0.0481 -0.9615 -0.2705
vn -0.1825 -0.7088 -0.6814
vn -0.9624 -0.1905 0.1934
vn 0.3586 -0.9326 -0.0406
vn -0.4350 -0.8891 -0.1421
vn 0.0313 -0.3584 0.9330
vn -0.0356 -0.8381 -0.5443
vn -0.1195 -0.9098 -0.3975
vn -0.7480 -0.6618 -0.0511
vn 0.2774 -0.9603 -0.0279
vn -0.8250 -0.5469 0.1426
vn -0.0551 0.8297 -0.5555
vn 0.5543 0.5428 0.6309
vn 0.1840 0.8663 0.4643
vn 0.1037 0.6267 -0.7723
vn -0.1730 0.9797 -0.1012
vn 0.3759 0.9245 0.0631
vn -0.0086 0.9399 0.3412
vn 0.4136 0.9100 0.0290
vn -0.1710 0.9762 0.1336
vn 0.0515 0.2500 -0.9669
vn -0.0397 0.8082 -0.5875
vn -0.4644 0.6192 0.6332
vn 0.6223 -0.7825 0.0215
vn -0.0184 -0.9981 0.0584
vn 0.5690 0.8200 -0.0619
vn 0.9998 0.0142 0.0135
vn -0.1985 0.9788 0.0509
vn -0.4853 0.8739 -0.0258
vn 0.6400 -0.7681 -0.0185
vn -0.7390 -0.6562 0.1528
vn -0.0432 -0.9989 -0.0158
vn 0.5371 0.8374 -0.1013
vn 0.9964 -0.0838 0.0088
vn 0.0427 -0.9991 0.0006
vn 0.8771 -0.3054 -0.3707
vn 0.2945 -0.4377 -0.8495
vn 0.4151 0.4866 0.7687
vn 0.9597 -0.0109 0.2808
vn -0.9773 -0.2062 0.0488
vn -0.7918 -0.6092 -0.0430
vn 0.1489 -0.9831 0.1067
vn -0.6786 -0.7306 0.0751
vn 0.3401 0.9398 0.0327
vn -0.6960 0.7134 -0.0814
vn 0.1640 -0.9834 0.0778
vn -0.2878 0.9574 -0.0225
vn 0.3332 -0.1728 -0.9269
vn 0.4456 0.1741 0.8782
vn 0.9555 0.0313 0.2935
vn -0.1414 0.1615 0.9767
vn -0.9819 -0.1194 -0.1474
vn -0.5531 -0.2795 -0.7849
vn -0.0075 -0.3251 -0.9456
vn -0.7321 -0.2984 -0.6124
vn -0.0423 0.4528 0.8906
vn -0.8717 0.3296 0.3627
vn 0.3327 -0.3499 -0.8757
vn -0.1321 0.5146 0.8472
vn 0.0664 -0.6255 0.7774
vn -0.1159 -0.9562 0.2689
vn -0.0112 -0.9962 0.0869
vn 0.0807 -0.8191 -0.5680
vn 0.9099 -0.0922 -0.4045
vn -0.9839 -0.0774 -0.1609
vn -0.5649 -0.1329 -0.8144
vn -0.0796 -0.1735 -0.9816
vn -0.8434 -0.1324 -0.5207
vn -0.0552 0.1766 0.9827
vn -0.9169 0.0896 0.3890
vn 0.5392 -0.1168 -0.8340
vt 0.529629 0.375140
vt 0.492936 0.371386
vt 0.493790 0.331869
vt 0.527367 0.333029
vt 0.521923 0.288472
vt 0.461982 0.290207
vt 0.450920 0.370409
vt 0.497824 0.407140
vt 0.471887 0.433292
vt 0.138334 0.115937
vt 0.175846 0.113851
vt 0.173141 0.186012
vt 0.144864 0.196288
vt 0.705523 0.391676
vt 0.658980 0.382825
vt 0.664168 0.330821
vt 0.724134 0.281746
vt 0.610856 0.464761
vt 0.608030 0.423277
vt 0.644244 0.418282
vt 0.664853 0.447122
vt 0.520934 0.461231
vt 0.528869 0.415789
vt 0.567220 0.421643
vt 0.563192 0.471599
vt 0.071388 0.119251
vt 0.099618 0.118708
vt 0.117141 0.242484
vt 0.086298 0.194695
vt 0.617910 0.282432
vt 0.615253 0.332576
vt 0.568804 0.332189
vt 0.569034 0.281637
vt 0.613443 0.379810
vt 0.569833 0.377983
vt 0.579498 0.830593
vt 0.561482 0.829108
vt 0.568319 0.806163
vt 0.589344 0.807809
vt 0.911850 0.096838
vt 0.939828 0.094096
vt 0.943290 0.149361
vt 0.916460 0.148411
vt 0.916454 0.205565
vt 0.944009 0.210963
vt 0.943317 0.296004
vt 0.911551 0.273492
vt 0.221206 0.118825
vt 0.278079 0.116856
vt 0.281306 0.241067
vt 0.212001 0.233937
vt 0.716912 0.626016
vt 0.684462 0.636645
vt 0.683255 0.521617
vt 0.723841 0.523425
vt 0.151036 0.240630
vt 0.215248 0.351528
vt 0.157377 0.357608
vt 0.720325 0.720592
vt 0.684549 0.752506
vt 0.218897 0.028085
vt 0.256925 0.012381
vt 0.074328 0.047280
vt 0.105954 0.050785
vt 0.141794 0.036088
vt 0.176732 0.031187
vt 0.395179 0.262450
vt 0.379549 0.156464
vt 0.440260 0.215118
vt 0.039366 0.043046
vt 0.035692 0.114502
vt 0.572452 0.778582
vt 0.589250 0.785041
vt 0.897443 0.014918
vt 0.936168 0.005694
vt 0.049039 0.173882
vt 0.547516 0.802020
vt 0.554216 0.755310
vt 0.416088 0.493491
vt 0.503406 0.505238
vt 0.972893 0.146245
vt 0.972893 0.193493
vt 0.791401 0.767469
vt 0.775676 0.761048
vt 0.803349 0.658242
vt 0.820138 0.661675
vt 0.399558 0.378270
vt 0.904617 0.408235
vt 0.949299 0.467756
vt 0.931239 0.524583
vt 0.885939 0.512141
vt 0.540100 0.850612
vt 0.559841 0.495205
vt 0.621528 0.492068
vt 0.704270 0.510229
vt 0.932074 0.634637
vt 0.890491 0.636283
vt 0.949299 0.728184
vt 0.907881 0.732679
vt 0.005694 0.012689
vt 0.079889 0.005694
vt 0.602672 0.806762
vt 0.626535 0.777498
vt 0.626535 0.895487
vt 0.587151 0.920740
vt 0.615996 0.848365
vt 0.896584 0.144202
vt 0.894729 0.189829
vt 0.028544 0.210642
vt 0.017909 0.115443
vt 0.111148 0.240558
vt 0.894922 0.233362
vt 0.123157 0.015802
vt 0.621674 0.179598
vt 0.599862 0.160562
vt 0.609079 0.005694
vt 0.622198 0.034229
vt 0.710859 0.187155
vt 0.724134 0.071192
vt 0.678243 0.857897
vt 0.718585 0.832405
vt 0.724102 0.983400
vt 0.678243 0.994306
vt 0.831921 0.286331
vt 0.813895 0.292159
vt 0.735522 0.151633
vt 0.754397 0.151793
vt 0.097462 0.347978
vt 0.012235 0.321602
vt 0.270376 0.337157
vt 0.591911 0.274246
vt 0.735522 0.764664
vt 0.762863 0.670327
vt 0.883341 0.387899
vt 0.866694 0.396847
vt 0.505384 0.190749
vt 0.778230 0.171352
vt 0.829731 0.053038
vt 0.839532 0.082802
vt 0.111296 0.743710
vt 0.005694 0.747945
vt 0.009467 0.642398
vt 0.112936 0.630926
vt 0.528712 0.703708
vt 0.468611 0.752313
vt 0.467580 0.610090
vt 0.528511 0.577160
vt 0.816630 0.040683
vt 0.856979 0.533122
vt 0.874551 0.530485
vt 0.945062 0.844949
vt 0.904435 0.853118
vt 0.442337 0.039814
vt 0.506777 0.038707
vt 0.831061 0.533297
vt 0.238445 0.494208
vt 0.163927 0.518622
vt 0.282200 0.457888
vt 0.380799 0.020251
vt 0.094983 0.489722
vt 0.005694 0.472542
vt 0.005694 0.586469
vt 0.109163 0.574996
vt 0.467780 0.554546
vt 0.528712 0.521617
vt 0.860438 0.005694
vt 0.873539 0.018049
vt 0.379549 0.583879
vt 0.379750 0.528335
vt 0.789425 0.447845
vt 0.802368 0.434100
vt 0.140518 0.769460
vt 0.145937 0.633148
vt 0.284484 0.750146
vt 0.220471 0.759587
vt 0.218725 0.682966
vt 0.283503 0.658619
vt 0.774704 0.478485
vt 0.664667 0.715039
vt 0.547533 0.743922
vt 0.540100 0.576944
vt 0.661509 0.576944
vt 0.368161 0.511315
vt 0.343703 0.563608
vt 0.157325 0.755590
vt 0.157325 0.631024
vt 0.380340 0.722677
vt 0.295872 0.574996
vt 0.313610 0.576735
vt 0.322227 0.721849
vt 0.295872 0.664190
vt 0.379549 0.791672
vt 0.428926 0.763700
vt 0.397024 0.915153
vt 0.379549 0.911455
vt 0.452978 0.795006
vt 0.426496 0.900217
vt 0.350440 0.594861
vt 0.365374 0.659286
vt 0.883341 0.047813
vt 0.750244 0.421980
vt 0.763186 0.408235
vt 0.142164 0.577219
vt 0.219371 0.626939
vt 0.284149 0.602592
vt 0.735522 0.452620
vt 0.545446 0.521617
vt 0.666855 0.521617
vt 0.339006 0.744805
vt 0.339006 0.797981
vt 0.295872 0.786413
vt 0.295872 0.733237
vt 0.157972 0.574996
s 0
usemtl Material
f 42/1/1 21/2/1 7/3/1 36/4/1
f 54/5/2 36/4/2 7/3/2 43/6/2
f 50/7/3 21/2/3 5/8/3 46/9/3
f 34/10/4 22/11/4 4/12/4 27/13/4
f 49/14/5 20/15/5 3/16/5 45/17/5
f 52/18/6 28/19/6 1/20/6 44/21/6
f 53/22/7 38/23/7 12/24/7 47/25/7
f 41/26/8 23/27/8 11/28/8 37/29/8
f 51/30/9 30/31/9 10/32/9 48/33/9
f 33/34/10 24/35/10 10/32/10 30/31/10
f 64/36/11 31/37/11 18/38/11 59/39/11
f 66/40/12 39/41/12 17/42/12 58/43/12
f 63/44/13 32/45/13 13/46/13 55/47/13
f 62/48/14 25/49/14 15/50/14 56/51/14
f 61/52/15 26/53/15 16/54/15 57/55/15
f 64/56/16 56/51/16 77/57/16 78/58/16
f 60/59/17 14/60/17 26/53/17 61/52/17
f 55/61/18 13/62/18 25/49/18 62/48/18
f 28/19/19 12/24/19 24/35/19 33/34/19
f 35/63/20 9/64/20 23/27/20 41/26/20
f 44/21/21 1/20/21 20/15/21 49/14/21
f 29/65/22 2/66/22 22/11/22 34/10/22
f 43/6/23 7/3/23 21/2/23 50/7/23
f 38/23/24 5/8/24 21/2/24 42/1/24
f 9/64/25 29/65/25 34/10/25 23/27/25
f 1/20/26 28/19/26 33/34/26 20/15/26
f 58/43/27 17/42/27 32/45/27 63/44/27
f 43/6/28 14/67/28 69/68/28 76/69/28
f 20/15/29 33/34/29 30/31/29 3/16/29
f 45/17/30 3/16/30 30/31/30 51/30/30
f 47/25/31 12/24/31 28/19/31 52/18/31
f 23/27/32 34/10/32 27/13/32 11/28/32
f 12/24/33 38/23/33 42/1/33 24/35/33
f 6/70/34 35/63/34 41/26/34 19/71/34
f 59/39/35 18/38/35 40/72/35 65/73/35
f 57/74/36 16/75/36 39/41/36 66/40/36
f 19/71/37 41/26/37 37/29/37 8/76/37
f 46/9/38 5/8/38 38/23/38 53/22/38
f 48/33/39 10/32/39 36/4/39 54/5/39
f 24/35/40 42/1/40 36/4/40 10/32/40
f 18/38/41 48/77/41 54/78/41 40/72/41
f 16/79/42 46/9/42 53/22/42 39/80/42
f 17/42/43 47/81/43 52/82/43 32/45/43
f 65/83/44 40/84/44 72/85/44 79/86/44
f 14/67/45 43/6/45 50/7/45 26/87/45
f 13/88/46 44/89/46 49/90/46 25/91/46
f 31/37/47 51/92/47 48/77/47 18/38/47
f 39/80/48 53/22/48 47/25/48 17/93/48
f 32/94/49 52/18/49 44/21/49 13/95/49
f 25/91/50 49/90/50 45/96/50 15/97/50
f 26/87/51 50/7/51 46/9/51 16/79/51
f 15/97/52 45/96/52 70/98/52 71/99/52
f 6/70/53 57/100/53 66/101/53 35/63/53
f 11/102/54 59/39/54 65/73/54 37/103/54
f 4/104/55 56/105/55 64/36/55 27/106/55
f 9/107/56 58/43/56 63/44/56 29/108/56
f 2/66/57 55/61/57 62/48/57 22/11/57
f 8/76/58 60/109/58 61/110/58 19/71/58
f 37/29/59 65/111/59 60/109/59 8/76/59
f 19/71/60 61/110/60 57/100/60 6/70/60
f 22/11/61 62/48/61 56/51/61 4/12/61
f 29/108/62 63/44/62 55/47/62 2/112/62
f 35/63/63 66/101/63 58/113/63 9/64/63
f 27/106/64 64/36/64 59/39/64 11/102/64
f 74/114/65 73/115/65 85/116/65 86/117/65
f 70/118/66 74/114/66 86/117/66 82/119/66
f 69/120/67 68/121/67 80/122/67 81/123/67
f 73/124/68 78/125/68 90/126/68 85/127/68
f 60/109/69 65/111/69 79/128/69 68/129/69
f 56/51/70 15/50/70 71/130/70 77/57/70
f 51/30/71 31/131/71 73/115/71 74/114/71
f 40/84/72 54/132/72 75/133/72 72/85/72
f 45/17/73 51/30/73 74/114/73 70/118/73
f 14/60/74 60/59/74 68/121/74 69/120/74
f 31/134/75 64/135/75 78/125/75 73/124/75
f 54/5/76 43/6/76 76/69/76 75/136/76
f 86/137/77 85/127/77 97/138/77 98/139/77
f 82/140/78 86/141/78 98/142/78 94/143/78
f 81/144/79 80/145/79 92/146/79 93/147/79
f 85/127/80 90/126/80 102/148/80 97/138/80
f 79/86/81 72/85/81 84/149/81 91/150/81
f 71/99/82 70/98/82 82/151/82 83/152/82
f 75/136/83 76/69/83 88/153/83 87/154/83
f 72/85/84 75/133/84 87/155/84 84/149/84
f 78/58/85 77/57/85 89/156/85 90/157/85
f 77/57/86 71/130/86 83/158/86 89/156/86
f 76/69/87 69/68/87 81/159/87 88/153/87
f 68/129/88 79/128/88 91/160/88 80/161/88
f 94/143/89 98/142/89 110/162/89 106/163/89
f 93/147/90 92/146/90 104/164/90 105/165/90
f 97/138/91 102/148/91 114/166/91 109/167/91
f 92/146/92 103/168/92 115/169/92 104/164/92
f 91/150/93 84/149/93 96/170/93 103/171/93
f 83/172/94 82/140/94 94/143/94 95/173/94
f 87/174/95 88/175/95 100/176/95 99/177/95
f 84/149/96 87/155/96 99/178/96 96/170/96
f 90/179/97 89/180/97 101/181/97 102/182/97
f 89/156/98 83/158/98 95/183/98 101/184/98
f 88/175/99 81/185/99 93/186/99 100/176/99
f 80/145/100 91/187/100 103/168/100 92/146/100
f 115/188/101 108/189/101 105/190/101 104/191/101
f 113/192/102 107/193/102 109/194/102 114/195/102
f 107/193/103 106/196/103 110/197/103 109/194/103
f 108/189/104 111/198/104 112/199/104 105/190/104
f 98/139/105 97/138/105 109/167/105 110/200/105
f 103/171/106 96/170/106 108/201/106 115/202/106
f 95/173/107 94/143/107 106/163/107 107/203/107
f 99/177/108 100/176/108 112/204/108 111/205/108
f 96/170/109 99/178/109 111/206/109 108/201/109
f 102/182/110 101/181/110 113/207/110 114/208/110
f 101/209/111 95/210/111 107/211/111 113/212/111
f 100/176/112 93/186/112 105/213/112 112/204/112
l 11 67
